<svg xmlns="http://www.w3.org/2000/svg" width="1105" height="1105" viewBox="0 0 1105 1105">
  <defs>
    <linearGradient id="features-bg2-a" x1="50%" x2="50%" y1="100%" y2="0%">
      <stop offset="0%" stop-color="#E8F9FF"/>
      <stop offset="100%" stop-color="#F5FCFF"/>
    </linearGradient>
    <linearGradient id="features-bg2-b" x1="50%" x2="50%" y1="0%" y2="100%">
      <stop offset="0%" stop-color="#E8F9FF"/>
      <stop offset="100%" stop-color="#F5FCFF"/>
    </linearGradient>
  </defs>
  <path fill="url(#features-bg2-a)" d="M65.6809595,310.403422 C140.892577,240.278455 221.885243,180.166559 308.658958,130.067731 C395.432672,79.9689035 487.987435,39.8831459 586.323246,9.8104572 C660.792583,-12.9634753 741.729429,8.72348679 794.834799,65.6809594 C864.95977,140.892576 925.071658,221.885245 975.170494,308.658956 C1025.26932,395.432672 1065.35507,487.987435 1095.42777,586.323245 C1118.20169,660.792584 1096.51473,741.729428 1039.55726,794.834801 C964.345644,864.959768 883.352978,925.071666 796.579264,975.170492 C709.805548,1025.26932 617.250785,1065.35507 518.914975,1095.42777 C444.445638,1118.2017 363.508792,1096.51473 310.403422,1039.55727 C240.278454,964.345644 180.166558,883.352978 130.067731,796.579263 C79.9689036,709.805549 39.883145,617.250786 9.81045632,518.914975 C-12.9634762,444.445638 8.72348591,363.508792 65.6809595,310.403422 Z"/>
  <path fill="url(#features-bg2-b)" d="M141.172754,341.884324 C203.960734,282.115094 271.536933,230.8396 343.901353,188.057841 C416.265772,145.276081 493.418412,110.988057 575.359272,85.1937678 C637.412776,65.6598506 704.741231,83.8877966 748.812547,132.153065 C807.008159,195.886737 856.85343,264.55712 898.348364,338.164212 C939.843297,411.771306 972.987888,490.315109 997.782142,573.795624 C1016.55874,637.015103 998.304686,705.839327 950.755588,751.102338 C887.967607,810.871567 820.391407,862.147061 748.026987,904.92882 C675.662568,947.710577 598.509928,981.998603 516.569067,1007.7929 C454.515565,1027.32681 387.187109,1009.09887 343.115794,960.833593 C284.920182,897.099928 235.07491,828.429542 193.579977,754.822449 C152.085044,681.215355 118.94045,602.671551 94.1461951,519.191036 C75.3696013,455.971559 93.6236552,387.147335 141.172754,341.884324 Z"/>
</svg>
